<?xml version="1.0" standalone="no"?>
<!DOCTYPE svg PUBLIC "-//W3C//DTD SVG 20010904//EN"
 "http://www.w3.org/TR/2001/REC-SVG-20010904/DTD/svg10.dtd">
<svg version="1.0" xmlns="http://www.w3.org/2000/svg"
 width="542.000000pt" height="542.000000pt" viewBox="0 0 542.000000 542.000000"
 preserveAspectRatio="xMidYMid meet">
<metadata>
Created by potrace 1.14, written by Peter Selinger 2001-2017
</metadata>
<g transform="translate(0.000000,542.000000) scale(0.100000,-0.100000)"
fill="#000000" stroke="none">
<path d="M3489 3738 c-32 -19 -35 -34 -44 -178 -3 -52 -8 -111 -10 -130 -2
-19 -6 -75 -10 -125 -4 -49 -9 -93 -11 -97 -3 -4 -21 3 -41 15 -77 45 -199 21
-269 -55 -152 -161 -129 -522 39 -606 96 -48 188 -16 260 90 l25 37 12 -43
c37 -135 161 -165 260 -63 23 23 49 55 57 71 l16 30 23 -60 c45 -112 104 -153
211 -149 70 3 132 29 204 87 38 31 121 143 145 198 l12 25 11 -30 c60 -151
123 -200 228 -180 77 14 163 139 206 300 15 55 47 246 47 279 0 22 -29 46 -54
46 -34 0 -53 -28 -60 -90 -3 -30 -8 -64 -10 -75 -2 -11 -7 -41 -10 -66 -14
-105 -70 -259 -95 -259 -56 0 -109 290 -79 437 8 40 8 56 -2 68 -27 32 -158 6
-181 -37 -6 -11 -14 -63 -19 -116 -6 -81 -13 -109 -43 -167 -93 -188 -203
-305 -284 -305 -28 0 -36 6 -53 40 -22 44 -33 155 -21 224 5 34 10 39 36 42
100 11 183 47 223 99 18 22 21 38 18 93 -4 82 -36 152 -95 205 -94 85 -194 56
-271 -78 -26 -45 -64 -150 -74 -200 -26 -137 -112 -339 -148 -351 -27 -8 -36
3 -47 61 -8 45 -6 348 3 465 7 80 25 261 31 300 2 14 7 52 10 85 4 33 8 73 10
89 5 38 -8 62 -45 81 -35 18 -73 16 -111 -7z m580 -537 c9 -16 16 -81 12 -122
-2 -29 -40 -59 -76 -59 l-33 0 20 73 c33 118 55 149 77 108z m-721 -79 c19
-13 47 -102 46 -147 -1 -64 -14 -154 -26 -183 -68 -172 -145 -206 -186 -83
-19 56 -9 226 18 296 37 95 101 146 148 117z"/>
<path d="M1410 3553 c-54 -8 -90 -26 -115 -54 -48 -58 -23 -124 59 -160 90
-39 223 -20 260 36 20 31 20 79 1 109 -27 41 -139 78 -205 69z"/>
<path d="M2463 3299 c-60 -17 -71 -44 -72 -180 -2 -133 -22 -217 -85 -354 -37
-79 -54 -98 -76 -85 -20 12 -18 237 2 331 23 106 -2 156 -81 166 -31 4 -46 1
-61 -12 -11 -10 -20 -13 -20 -7 0 6 -16 27 -36 46 -29 28 -47 36 -90 42 -174
21 -305 -173 -302 -447 2 -158 45 -268 131 -330 37 -27 48 -30 93 -26 28 3 60
10 72 16 32 17 100 100 112 137 6 19 13 34 14 34 2 0 21 -17 43 -39 68 -64
131 -63 199 5 23 23 52 61 64 83 22 44 31 52 25 23 -5 -28 29 -96 60 -120 43
-34 99 -46 132 -28 30 16 71 64 90 105 12 26 12 -30 -2 -259 -2 -41 -7 -124
-11 -185 -3 -60 -8 -113 -10 -117 -2 -3 3 -14 12 -22 38 -39 155 26 185 103 6
14 12 122 14 240 8 362 19 625 30 722 5 38 2 48 -15 64 -40 36 -156 15 -164
-29 -3 -11 -7 -46 -10 -76 -3 -30 -8 -66 -11 -80 -3 -14 -10 -52 -16 -85 -25
-137 -80 -258 -105 -232 -13 13 -9 149 11 382 17 199 17 193 -22 214 -25 13
-55 13 -100 0z m-477 -194 c26 -17 44 -81 47 -155 5 -199 -80 -415 -156 -396
-108 27 -74 477 41 549 33 20 42 21 68 2z"/>
<path d="M960 3249 c-47 -27 -103 -105 -134 -187 -83 -222 -42 -445 93 -505
76 -34 172 -27 247 19 48 29 108 87 133 127 12 20 25 37 28 37 3 0 2 -55 -1
-122 -4 -68 -9 -166 -11 -218 -3 -52 -7 -113 -9 -135 -3 -22 -8 -74 -12 -116
l-6 -77 28 -6 c54 -12 120 16 157 66 16 22 20 45 22 145 2 65 6 240 10 388 3
149 8 286 10 305 16 146 16 218 0 234 -9 9 -19 16 -23 17 -4 0 -16 2 -27 4
-34 7 -94 -15 -109 -38 -9 -14 -14 -54 -15 -106 -3 -131 -70 -272 -182 -383
-62 -61 -160 -61 -184 0 -27 69 -5 271 41 388 30 75 48 94 62 67 10 -18 8
-103 -3 -159 -3 -16 -8 -52 -11 -81 -6 -50 -5 -52 20 -59 38 -9 94 30 117 81
34 78 12 222 -44 283 -51 55 -134 68 -197 31z"/>
<path d="M1198 1931 c7 -4 12 -12 11 -17 -1 -5 -1 -20 0 -34 1 -19 4 -21 10
-11 5 8 7 20 4 28 -3 7 0 20 7 28 11 13 8 15 -16 15 -19 0 -25 -3 -16 -9z"/>
<path d="M1330 1912 c0 -34 20 -55 44 -46 10 4 16 18 16 41 0 20 -4 32 -10 28
-6 -3 -8 -17 -6 -31 4 -18 0 -24 -13 -24 -14 0 -18 7 -16 25 2 14 -1 27 -6 31
-5 3 -9 -8 -9 -24z"/>
<path d="M1482 1905 c0 -19 4 -38 9 -41 5 -3 9 -2 8 3 -4 22 3 24 24 7 12 -10
17 -12 10 -5 -9 10 -9 20 -1 34 11 21 -2 37 -33 37 -13 0 -17 -9 -17 -35z m38
17 c0 -13 -12 -22 -22 -16 -10 6 -1 24 13 24 5 0 9 -4 9 -8z"/>
<path d="M1630 1899 c0 -30 3 -39 9 -30 5 8 7 21 4 30 -3 9 6 4 21 -11 15 -16
29 -28 31 -28 2 0 2 15 1 34 -2 40 -16 62 -16 26 l0 -23 -25 23 -25 23 0 -44z"/>
<path d="M1789 1933 c-4 -43 -3 -65 3 -69 4 -3 8 13 8 35 0 23 -2 41 -5 41 -3
0 -5 -3 -6 -7z"/>
<path d="M1890 1897 c1 -33 3 -38 11 -24 5 9 7 23 3 30 -4 6 7 -1 23 -16 l31
-28 0 40 c0 23 -3 41 -8 41 -5 0 -7 -6 -4 -14 3 -8 1 -17 -5 -21 -6 -3 -14 0
-17 9 -3 8 -12 17 -20 20 -11 4 -14 -4 -14 -37z"/>
<path d="M2053 1912 c-7 -31 17 -56 46 -47 25 8 28 35 4 35 -14 0 -15 -2 -4
-9 7 -5 9 -11 4 -14 -6 -4 -18 0 -29 7 -16 12 -16 16 -5 30 8 9 20 15 28 12 7
-3 13 -1 13 4 0 5 -11 9 -25 8 -18 -2 -28 -10 -32 -26z"/>
<path d="M2322 1900 c1 -22 4 -37 7 -34 9 9 8 74 -1 74 -4 0 -7 -18 -6 -40z"/>
<path d="M2430 1901 c0 -36 2 -41 22 -38 49 8 48 68 -1 75 -18 3 -21 -1 -21
-37z m47 -4 c-2 -7 -11 -13 -20 -15 -12 -3 -17 4 -17 23 0 23 2 25 21 15 11
-6 18 -17 16 -23z"/>
<path d="M2584 1903 c1 -39 26 -57 42 -32 5 9 2 10 -9 6 -11 -4 -17 -1 -17 9
0 8 5 12 10 9 6 -3 10 -2 10 4 0 5 -8 11 -17 14 -15 3 -14 6 7 15 l25 11 -26
0 c-24 1 -26 -2 -25 -36z"/>
<path d="M2734 1905 c-18 -45 -18 -48 5 -33 15 9 23 9 35 -1 9 -8 16 -11 16
-7 0 13 -29 76 -35 76 -3 0 -13 -16 -21 -35z m30 0 c3 -9 0 -15 -9 -15 -9 0
-12 6 -9 15 4 8 7 15 9 15 2 0 5 -7 9 -15z"/>
<path d="M2886 1925 c-3 -8 3 -20 14 -28 22 -15 17 -28 -8 -21 -14 4 -13 3 1
-6 14 -9 22 -9 34 1 13 12 13 15 -6 30 -25 20 -27 31 -6 23 8 -4 15 -1 15 5 0
16 -37 13 -44 -4z"/>
<path d="M3138 1933 c6 -2 12 -18 12 -33 0 -16 4 -31 9 -34 5 -3 7 8 6 24 -2
20 3 34 14 40 12 7 8 9 -19 9 -19 0 -29 -3 -22 -6z"/>
<path d="M3286 1924 c-19 -19 -20 -25 -3 -49 20 -26 67 -13 67 18 0 43 -35 60
-64 31z m42 -40 c-19 -19 -38 -11 -38 16 0 24 21 31 40 14 12 -12 12 -16 -2
-30z"/>
<path d="M3554 1928 c-5 -8 0 -9 14 -6 15 4 22 2 22 -9 0 -10 -6 -12 -20 -8
-16 5 -19 2 -17 -14 4 -27 17 -39 17 -16 0 17 1 17 23 -1 12 -10 17 -12 10 -5
-9 10 -9 20 -1 34 7 15 7 22 -3 28 -19 12 -37 11 -45 -3z"/>
<path d="M3704 1926 c-11 -29 1 -61 24 -64 12 -2 22 1 22 6 0 5 -6 9 -12 8 -7
0 -14 4 -14 9 -1 6 2 9 7 8 5 -2 9 1 9 6 0 5 -8 11 -17 14 -15 3 -14 6 7 15
25 11 25 11 2 11 -12 1 -25 -5 -28 -13z"/>
<path d="M3853 1913 c-17 -37 -17 -40 10 -38 12 1 28 -2 35 -8 16 -12 15 -7
-3 37 -18 43 -26 45 -42 9z m26 -22 c-15 -5 -22 6 -14 19 6 9 10 9 16 -1 5 -8
4 -15 -2 -18z"/>
<path d="M4000 1907 c0 -20 4 -38 10 -42 5 -3 8 9 6 30 -5 49 -16 57 -16 12z"/>
<path d="M4136 1904 c5 -52 14 -55 14 -6 0 23 -4 42 -9 42 -5 0 -7 -16 -5 -36z"/>
<path d="M4248 1933 c6 -2 12 -21 12 -40 0 -42 9 -40 12 3 1 16 7 32 13 36 5
4 -3 7 -20 7 -16 0 -24 -3 -17 -6z"/>
<path d="M4394 1918 c9 -12 16 -31 16 -42 0 -21 10 -17 14 6 1 7 8 23 14 36 7
12 9 22 3 22 -5 0 -12 -8 -16 -17 -6 -17 -7 -17 -19 0 -19 25 -30 21 -12 -5z"/>
<path d="M4030 1870 c0 -5 5 -10 11 -10 5 0 7 5 4 10 -3 6 -8 10 -11 10 -2 0
-4 -4 -4 -10z"/>
</g>
</svg>
